<svg t="1781949103912" class="icon" viewBox="0 0 1024 1024" version="1.1" xmlns="http://www.w3.org/2000/svg" p-id="8106" width="64" height="64"><path d="M590.797056 236.191205C416.903553 236.191205 276.008817 377.085941 276.008817 550.979444s140.894736 314.788238 314.788239 314.788238S905.585294 724.872946 905.585294 550.979444 764.690559 236.191205 590.797056 236.191205z m0 472.182358c-86.99675 0-157.394119-70.497366-157.394119-157.394119 0-86.99675 70.497366-157.394119 157.394119-157.39412 86.99675 0 157.394119 70.497366 157.394119 157.39412s-70.497366 157.394119-157.394119 157.394119z" fill="#FF6183" p-id="8107"></path><path d="M905.585294 314.788268L716.692352 457.282944c46.898248 62.397669 40.698479 149.694407-14.499458 204.792349L868.986662 828.869061c138.294833-138.394829 153.89425-357.386647 36.598632-514.080793z" fill="#FFC105" p-id="8108"></path><path d="M702.092898 662.275285c-61.497702 61.497702-161.193977 61.497702-222.69168 0.099996l-0.099996-0.099996-222.591684 222.791676c184.093122 184.793096 483.08195 185.293077 667.875046 1.199955l1.199956-1.199955-223.691642-222.791676z" fill="#2EC287" p-id="8109"></path><path d="M433.30294 550.979444c0-86.99675 70.497366-157.394119 157.39412-157.39412V0.00003C286.408429-0.099966 39.61765 246.390824 39.517653 550.679455 39.417657 696.973989 97.615483 837.368743 201.111616 940.76488l278.289602-278.289602c-29.598894-29.598894-46.198274-69.697396-46.098278-111.495834z" fill="#3A8FFF" p-id="8110"></path></svg>